<svg width="16" height="13" viewBox="0 0 16 13" fill="none" xmlns="http://www.w3.org/2000/svg">
<path d="M0.5625 1.54688C0.5625 1.11523 0.894531 0.75 1.35938 0.75H14.6406C15.0723 0.75 15.4375 1.11523 15.4375 1.54688C15.4375 2.01172 15.0723 2.34375 14.6406 2.34375H1.35938C0.894531 2.34375 0.5625 2.01172 0.5625 1.54688ZM0.5625 6.85938C0.5625 6.42773 0.894531 6.0625 1.35938 6.0625H14.6406C15.0723 6.0625 15.4375 6.42773 15.4375 6.85938C15.4375 7.32422 15.0723 7.65625 14.6406 7.65625H1.35938C0.894531 7.65625 0.5625 7.32422 0.5625 6.85938ZM14.6406 12.9688H1.35938C0.894531 12.9688 0.5625 12.6367 0.5625 12.1719C0.5625 11.7402 0.894531 11.375 1.35938 11.375H14.6406C15.0723 11.375 15.4375 11.7402 15.4375 12.1719C15.4375 12.6367 15.0723 12.9688 14.6406 12.9688Z" fill="white"/>
</svg>
