<svg width="20" height="20" viewBox="0 0 20 20" fill="none" xmlns="http://www.w3.org/2000/svg">
<g clip-path="url(#clip0_132_1110)">
<path d="M7.55382 6.22388C7.91313 6.22388 8.24111 6.25588 8.53777 6.31921C8.83442 6.38254 9.08774 6.48653 9.29906 6.63119C9.51038 6.77585 9.67437 6.96784 9.79104 7.20783C9.9077 7.44781 9.96569 7.7438 9.96569 8.09645C9.96569 8.47709 9.87903 8.79441 9.70637 9.0484C9.53372 9.30239 9.27773 9.51037 8.93975 9.67237C9.40506 9.80636 9.75237 10.041 9.98169 10.3757C10.211 10.7103 10.3257 11.1143 10.3257 11.5869C10.3257 11.9676 10.2517 12.2976 10.1037 12.5762C9.95569 12.8549 9.75637 13.0822 9.50572 13.2582C9.25506 13.4348 8.96974 13.5648 8.64909 13.6495C8.32644 13.7342 7.99379 13.7768 7.66048 13.7762H4V6.22388H7.55382ZM7.34249 9.28039C7.63848 9.28039 7.8818 9.20972 8.07246 9.06906C8.26311 8.92774 8.35844 8.69908 8.35778 8.38177C8.35778 8.20577 8.32578 8.06112 8.26245 7.94845C8.19912 7.83579 8.11445 7.74713 8.00846 7.6838C7.90247 7.62047 7.78114 7.57647 7.64381 7.55181C7.50249 7.52714 7.35916 7.51448 7.21517 7.51514H5.66125V9.28172L7.34249 9.28039ZM7.43782 12.4849C7.59448 12.4856 7.75047 12.4696 7.90313 12.4376C8.05113 12.4056 8.18179 12.3529 8.29445 12.2789C8.40711 12.2049 8.4971 12.1042 8.56443 11.9776C8.63109 11.8509 8.66509 11.6883 8.66509 11.4909C8.66509 11.1036 8.55577 10.8263 8.33711 10.661C8.11845 10.495 7.82914 10.4123 7.46982 10.4123H5.66125V12.4856L7.43782 12.4849ZM12.4149 12.3262C12.6402 12.5449 12.9649 12.6542 13.3882 12.6542C13.6915 12.6542 13.9522 12.5782 14.1708 12.4269C14.3895 12.2756 14.5235 12.1149 14.5728 11.9456H15.8947C15.6834 12.6015 15.3587 13.0702 14.9214 13.3522C14.4841 13.6342 13.9555 13.7755 13.3349 13.7755C12.9049 13.7755 12.5169 13.7068 12.1716 13.5695C11.8263 13.4322 11.5336 13.2362 11.2936 12.9822C11.0536 12.7282 10.8683 12.4256 10.7383 12.0729C10.6083 11.7203 10.543 11.3323 10.543 10.9096C10.543 10.501 10.6097 10.1203 10.7437 9.76769C10.8776 9.41505 11.0683 9.11039 11.315 8.85308C11.5616 8.59575 11.8563 8.3931 12.1982 8.24511C12.5402 8.09711 12.9195 8.02312 13.3355 8.02312C13.8008 8.02312 14.2061 8.11311 14.5521 8.2931C14.8974 8.47309 15.1814 8.71442 15.4034 9.01773C15.6254 9.32105 15.7861 9.66637 15.8847 10.0543C15.9834 10.4423 16.0187 10.8476 15.9907 11.2709H12.0456C12.0663 11.7556 12.1896 12.1082 12.4149 12.3262ZM14.1128 9.44971C13.9328 9.25239 13.6595 9.15373 13.2929 9.15373C13.0529 9.15373 12.8535 9.19439 12.6956 9.27505C12.5369 9.35638 12.4102 9.45638 12.3149 9.57637C12.2196 9.69636 12.1529 9.82302 12.1142 9.95702C12.0756 10.091 12.0523 10.211 12.0456 10.3163H14.4888C14.4175 9.93635 14.2921 9.64703 14.1128 9.44971ZM11.7883 6.60719H14.8408V7.45381H11.7883V6.60719Z" fill="white"/>
</g>
<rect x="0.5" y="0.5" width="19" height="19" rx="9.5" stroke="white"/>
<defs>
<clipPath id="clip0_132_1110">
<rect width="20" height="20" rx="10" fill="white"/>
</clipPath>
</defs>
</svg>
