<svg width="20" height="20" viewBox="0 0 20 20" fill="none" xmlns="http://www.w3.org/2000/svg">
<g clip-path="url(#clip0_132_1106)">
<path d="M10 20C15.5228 20 20 15.5228 20 10C20 4.47715 15.5228 0 10 0C4.47715 0 0 4.47715 0 10C0 15.5228 4.47715 20 10 20Z" fill="#1769FF"/>
<path d="M7.0646 5.46881C7.4958 5.46881 7.8894 5.50721 8.2454 5.58321C8.6014 5.65921 8.90541 5.78401 9.15901 5.95761C9.41261 6.13121 9.6094 6.36161 9.7494 6.64961C9.8894 6.93761 9.95901 7.29281 9.95901 7.71601C9.95901 8.17281 9.855 8.55361 9.64781 8.85841C9.44061 9.16321 9.13341 9.41281 8.72781 9.60721C9.2862 9.76801 9.70301 10.0496 9.97821 10.4512C10.2534 10.8528 10.391 11.3376 10.391 11.9048C10.391 12.3616 10.3022 12.7576 10.1246 13.092C9.947 13.4264 9.70781 13.6992 9.40701 13.9104C9.1062 14.1224 8.76381 14.2784 8.379 14.38C7.99181 14.4816 7.5926 14.5328 7.1926 14.532H2.7998V5.46881H7.0646ZM6.81101 9.13681C7.1662 9.13681 7.45821 9.05201 7.68701 8.88321C7.91581 8.71361 8.03021 8.43921 8.02941 8.05841C8.02941 7.84721 7.991 7.67361 7.91501 7.53841C7.839 7.40321 7.7374 7.29681 7.6102 7.22081C7.48301 7.14481 7.3374 7.09201 7.1726 7.06241C7.003 7.03281 6.831 7.01761 6.6582 7.01841H4.7934V9.13841L6.81101 9.13681ZM6.92541 12.9824C7.11341 12.9832 7.3006 12.964 7.4838 12.9256C7.66141 12.8872 7.8182 12.824 7.9534 12.7352C8.0886 12.6464 8.1966 12.5256 8.2774 12.3736C8.3574 12.2216 8.39821 12.0264 8.39821 11.7896C8.39821 11.3248 8.267 10.992 8.0046 10.7936C7.7422 10.5944 7.395 10.4952 6.9638 10.4952H4.7934V12.9832L6.92541 12.9824ZM12.8982 12.792C13.1686 13.0544 13.5582 13.1856 14.0662 13.1856C14.4302 13.1856 14.743 13.0944 15.0054 12.9128C15.2678 12.7312 15.4286 12.5384 15.4878 12.3352H17.0742C16.8206 13.1224 16.431 13.6848 15.9062 14.0232C15.3814 14.3616 14.747 14.5312 14.0022 14.5312C13.4862 14.5312 13.0206 14.4488 12.6062 14.284C12.1918 14.1192 11.8406 13.884 11.5526 13.5792C11.2646 13.2744 11.0422 12.9112 10.8862 12.488C10.7302 12.0648 10.6518 11.5992 10.6518 11.092C10.6518 10.6016 10.7318 10.1448 10.8926 9.72161C11.0534 9.29841 11.2822 8.93281 11.5782 8.62401C11.8742 8.31521 12.2278 8.07201 12.6382 7.89441C13.0486 7.71681 13.5038 7.62801 14.003 7.62801C14.5614 7.62801 15.0478 7.73601 15.463 7.95201C15.8774 8.16801 16.2182 8.45761 16.4846 8.82161C16.751 9.18561 16.9438 9.60001 17.0622 10.0656C17.1806 10.5312 17.223 11.0176 17.1894 11.5256H12.455C12.4798 12.1072 12.6278 12.5304 12.8982 12.792ZM14.9358 9.34001C14.7198 9.10321 14.3918 8.98481 13.9518 8.98481C13.6638 8.98481 13.4246 9.03361 13.235 9.13041C13.0446 9.22801 12.8926 9.34801 12.7782 9.49201C12.6638 9.63601 12.5838 9.78801 12.5374 9.94881C12.491 10.1096 12.463 10.2536 12.455 10.38H15.387C15.3014 9.92401 15.151 9.57681 14.9358 9.34001ZM12.1462 5.92881H15.8094V6.94481H12.1462V5.92881Z" fill="white"/>
</g>
<defs>
<clipPath id="clip0_132_1106">
<rect width="20" height="20" fill="white"/>
</clipPath>
</defs>
</svg>
