<svg width="18" height="16" viewBox="0 0 18 16" fill="none" xmlns="http://www.w3.org/2000/svg">
<path d="M2.625 7.0625C1.42969 7.0625 0.5 6.13281 0.5 4.9375V2.8125C0.5 1.65039 1.42969 0.6875 2.625 0.6875H15.375C16.5371 0.6875 17.5 1.65039 17.5 2.8125V4.9375C17.5 6.13281 16.5371 7.0625 15.375 7.0625H2.625ZM17.5 13.4375C17.5 14.6328 16.5371 15.5625 15.375 15.5625H2.625C1.42969 15.5625 0.5 14.6328 0.5 13.4375V11.3125C0.5 10.1504 1.42969 9.1875 2.625 9.1875H15.375C16.5371 9.1875 17.5 10.1504 17.5 11.3125V13.4375ZM15.375 10.7812H2.625C2.32617 10.7812 2.09375 11.0469 2.09375 11.3125V13.4375C2.09375 13.7363 2.32617 13.9688 2.625 13.9688H15.375C15.6406 13.9688 15.9062 13.7363 15.9062 13.4375V11.3125C15.9062 11.0469 15.6406 10.7812 15.375 10.7812Z" fill="white"/>
</svg>
