<svg width="20" height="20" viewBox="0 0 20 20" fill="none" xmlns="http://www.w3.org/2000/svg">
<rect x="0.5" y="0.5" width="19" height="19" rx="9.5" stroke="white"/>
<path d="M4 10C4 8.912 4.26801 7.908 4.804 6.988C5.34 6.068 6.06801 5.34 6.988 4.804C7.908 4.268 8.91201 4 10 4C11.088 4 12.092 4.268 13.012 4.804C13.932 5.34 14.66 6.068 15.196 6.988C15.732 7.908 16 8.912 16 10C16 11.088 15.732 12.092 15.196 13.012C14.66 13.932 13.932 14.66 13.012 15.196C12.092 15.732 11.088 16 10 16C8.91201 16 7.908 15.732 6.988 15.196C6.06801 14.66 5.34 13.932 4.804 13.012C4.26801 12.092 4 11.088 4 10ZM4.996 10C4.996 11.248 5.416 12.348 6.256 13.3C6.64 12.548 7.248 11.832 8.08 11.152C8.91201 10.472 9.724 10.044 10.516 9.868C10.396 9.588 10.28 9.336 10.168 9.112C8.79201 9.552 7.30401 9.772 5.704 9.772C5.392 9.772 5.16 9.768 5.008 9.76C5.008 9.792 5.00601 9.832 5.002 9.88C4.998 9.928 4.996 9.968 4.996 10ZM5.152 8.764C5.328 8.78 5.58801 8.788 5.932 8.788C7.26801 8.788 8.536 8.608 9.736 8.248C9.12801 7.168 8.46 6.268 7.732 5.548C7.10001 5.868 6.558 6.312 6.106 6.88C5.65401 7.448 5.33601 8.076 5.152 8.764ZM6.94 13.948C7.84401 14.652 8.86401 15.004 10 15.004C10.592 15.004 11.18 14.892 11.764 14.668C11.604 13.3 11.292 11.976 10.828 10.696C10.092 10.856 9.35001 11.26 8.602 11.908C7.854 12.556 7.3 13.236 6.94 13.948ZM8.776 5.164C9.48 5.892 10.132 6.8 10.732 7.888C11.82 7.432 12.64 6.852 13.192 6.148C12.264 5.38 11.2 4.996 10 4.996C9.592 4.996 9.184 5.052 8.776 5.164ZM11.164 8.74C11.284 8.996 11.42 9.32 11.572 9.712C12.164 9.656 12.808 9.628 13.504 9.628C14 9.628 14.492 9.64 14.98 9.664C14.916 8.576 14.524 7.608 13.804 6.76C13.284 7.536 12.404 8.196 11.164 8.74ZM11.872 10.552C12.28 11.736 12.556 12.952 12.7 14.2C13.332 13.792 13.848 13.268 14.248 12.628C14.648 11.988 14.888 11.296 14.968 10.552C14.384 10.512 13.852 10.492 13.372 10.492C12.932 10.492 12.432 10.512 11.872 10.552Z" fill="white"/>
</svg>
