<svg width="20" height="20" viewBox="0 0 20 20" fill="none" xmlns="http://www.w3.org/2000/svg">
<rect width="20" height="20" rx="10" fill="#F9B3E5"/>
<path d="M2 10C2 8.54933 2.35734 7.21067 3.072 5.984C3.78667 4.75733 4.75734 3.78667 5.984 3.072C7.21067 2.35733 8.54934 2 10 2C11.4507 2 12.7893 2.35733 14.016 3.072C15.2427 3.78667 16.2133 4.75733 16.928 5.984C17.6427 7.21067 18 8.54933 18 10C18 11.4507 17.6427 12.7893 16.928 14.016C16.2133 15.2427 15.2427 16.2133 14.016 16.928C12.7893 17.6427 11.4507 18 10 18C8.54934 18 7.21067 17.6427 5.984 16.928C4.75734 16.2133 3.78667 15.2427 3.072 14.016C2.35734 12.7893 2 11.4507 2 10ZM3.328 10C3.328 11.664 3.888 13.1307 5.008 14.4C5.52 13.3973 6.33067 12.4427 7.44 11.536C8.54934 10.6293 9.632 10.0587 10.688 9.824C10.528 9.45067 10.3733 9.11467 10.224 8.816C8.38934 9.40267 6.40534 9.696 4.272 9.696C3.856 9.696 3.54667 9.69067 3.344 9.68C3.344 9.72267 3.34134 9.776 3.336 9.84C3.33067 9.904 3.328 9.95733 3.328 10ZM3.536 8.352C3.77067 8.37333 4.11734 8.384 4.576 8.384C6.35734 8.384 8.048 8.144 9.648 7.664C8.83734 6.224 7.94667 5.024 6.976 4.064C6.13334 4.49067 5.41067 5.08267 4.808 5.84C4.20534 6.59733 3.78134 7.43467 3.536 8.352ZM5.92 15.264C7.12534 16.2027 8.48534 16.672 10 16.672C10.7893 16.672 11.5733 16.5227 12.352 16.224C12.1387 14.4 11.7227 12.6347 11.104 10.928C10.1227 11.1413 9.13334 11.68 8.136 12.544C7.13867 13.408 6.4 14.3147 5.92 15.264ZM8.368 3.552C9.30667 4.52267 10.176 5.73333 10.976 7.184C12.4267 6.576 13.52 5.80267 14.256 4.864C13.0187 3.84 11.6 3.328 10 3.328C9.456 3.328 8.912 3.40267 8.368 3.552ZM11.552 8.32C11.712 8.66133 11.8933 9.09333 12.096 9.616C12.8853 9.54133 13.744 9.504 14.672 9.504C15.3333 9.504 15.9893 9.52 16.64 9.552C16.5547 8.10133 16.032 6.81067 15.072 5.68C14.3787 6.71467 13.2053 7.59467 11.552 8.32ZM12.496 10.736C13.04 12.3147 13.408 13.936 13.6 15.6C14.4427 15.056 15.1307 14.3573 15.664 13.504C16.1973 12.6507 16.5173 11.728 16.624 10.736C15.8453 10.6827 15.136 10.656 14.496 10.656C13.9093 10.656 13.2427 10.6827 12.496 10.736Z" fill="#BD67A4"/>
</svg>
