<svg width="16" height="16" viewBox="0 0 16 16" fill="none" xmlns="http://www.w3.org/2000/svg">
<path d="M6.9375 2.28125V5.46875C6.9375 6.36523 6.20703 7.0625 5.34375 7.0625H2.15625C1.25977 7.0625 0.5625 6.36523 0.5625 5.46875V2.28125C0.5625 1.41797 1.25977 0.6875 2.15625 0.6875H5.34375C6.20703 0.6875 6.9375 1.41797 6.9375 2.28125ZM6.9375 10.7812V13.9688C6.9375 14.8652 6.20703 15.5625 5.34375 15.5625H2.15625C1.25977 15.5625 0.5625 14.8652 0.5625 13.9688V10.7812C0.5625 9.91797 1.25977 9.1875 2.15625 9.1875H5.34375C6.20703 9.1875 6.9375 9.91797 6.9375 10.7812ZM9.0625 2.28125C9.0625 1.41797 9.75977 0.6875 10.6562 0.6875H13.8438C14.707 0.6875 15.4375 1.41797 15.4375 2.28125V5.46875C15.4375 6.36523 14.707 7.0625 13.8438 7.0625H10.6562C9.75977 7.0625 9.0625 6.36523 9.0625 5.46875V2.28125ZM15.4375 10.7812V13.9688C15.4375 14.8652 14.707 15.5625 13.8438 15.5625H10.6562C9.75977 15.5625 9.0625 14.8652 9.0625 13.9688V10.7812C9.0625 9.91797 9.75977 9.1875 10.6562 9.1875H13.8438C14.707 9.1875 15.4375 9.91797 15.4375 10.7812Z" fill="white"/>
</svg>
