<svg style="display:none;">

<!-- Personal logo -->

<symbol id="personal-logo" viewBox="0 0 30 30" fill="none" 
  xmlns="http://www.w3.org/2000/svg">
    <g clip-path="url(#clip0_107_1206)">
    <path d="M8.0437 23.2687V9.33749L15.0187 16.3125L21.9656 9.33749V23.2687" 
    stroke="currentColor" stroke-width="2.29" stroke-miterlimit="10"/>
    <path d="M26.7 30H3.30938C2.4333 30 1.59296 29.6526 0.972602 29.034C0.352242 
    28.4154 0.00248181 27.5761 0 26.7L0 0L3.06562 2.22187L6.0375 
    0V5.24063H4.60312V2.8125L3.075 3.99375L1.43437 2.8125V26.7C1.43437 27.1973 
    1.63192 27.6742 1.98355 28.0258C2.33518 28.3775 2.81209 28.575 3.30938 
    28.575H26.7469C27.2442 28.575 27.7211 28.3775 28.0727 28.0258C28.4243 27.6742 
    28.6219 27.1973 28.6219 26.7V3.2625C28.6219 2.76522 28.4243 2.28831 28.0727 
    1.93667C27.7211 1.58504 27.2442 1.3875 26.7469 1.3875H8.38125V0H26.7C27.5745 
    0.00247372 28.4124 0.350946 29.0307 0.96928C29.6491 1.58761 29.9975 2.42555 30
      3.3V26.7375C29.9877 27.6054 29.6349 28.4338 29.0176 29.0441C28.4003 29.6543 
      27.568 29.9976 26.7 30Z" fill="currentColor"/>
    </g>
    <defs>
      <clipPath id="clip0_107_1206">
        <rect width="30" height="30" fill="currentColor"/> 
      </clipPath>
    </defs>
</symbol>

<!-- Moon icon -->

<symbol id="moon-icon" viewBox="0 0 30 30" xmlns="http://www.w3.org/2000/svg">
  <g transform="translate(0.7, 3)">
    <path d="M8 12C8 8.1562 11.125 5 14.9688 5C15.3438 5 15.9062 5.0625 16.25 
      5.125C16.5625 5.1875 16.625 5.59375 16.3438 5.75C14.6562 6.71875 13.5938 
      8.5312 13.5938 10.5C13.5938 13.9375 16.6875 16.5312 20.0938 15.9062C20.4062 
      15.8438 20.5938 16.1875 20.4062 16.4375C19.0938 18.0312 17.125 19 14.9688 
      19C11.125 19 8 15.875 8 12Z" fill="currentColor"/>
  </g>
</symbol>

<!-- Sun icon -->

<symbol id="sun-icon" viewBox="0 0 30 30" xmlns="http://www.w3.org/2000/svg">
  <g transform="translate(7, 7)">
    <path fill="currentColor" d="M8 4.5c1.906 0 3.5 1.594 3.5 3.5 0 1.938-1.594 3.5-3.5
    3.5A3.494 3.494 0 0 1 4.5 8c0-1.906 1.563-3.5 3.5-3.5ZM8 10c1.094 0 2-.875 2-2 
    0-1.094-.906-2-2-2-1.125 0-2 .906-2 2 0 1.125.875 2 2 2Zm0-6.5a.722.722 0 0 
    1-.75-.75v-2A.74.74 0 0 1 8 0a.76.76 0 0 1 .75.75v2A.74.74 0 0 1 8 
    3.5Zm0 9a.76.76 0 0 1 .75.75v2A.74.74 0 0 1 8 16a.722.722 0 0 
    1-.75-.75v-2A.74.74 0 0 1 8 12.5Zm7.25-5.25A.76.76 0 0 1 16 8a.74.74 0 0 
    1-.75.75h-2A.722.722 0 0 1 12.5 8a.74.74 0 0 1 .75-.75h2ZM3.5 8a.74.74 0 0 
    1-.75.75h-2A.722.722 0 0 1 0 8a.74.74 0 0 1 .75-.75h2A.76.76 0 0 1 3.5 
    8Zm8.719 3.188 1.437 1.437c.281.281.281.75 0 
    1.063-.156.124-.344.218-.531.218a.754.754 0 0 
    1-.531-.219l-1.438-1.437c-.281-.281-.281-.75 0-1.063.313-.28.781-.28 1.063 
    0ZM3.75 4.843 2.312 3.406c-.28-.281-.28-.75 0-1.062.313-.281.782-.281 1.063 
    0L4.813 3.78c.28.281.28.75 0 1.063-.157.125-.344.218-.532.218a.815.815 0 0 
    1-.531-.218Zm7.938.218c-.188 0-.376-.093-.532-.218-.281-.313-.281-.782 
    0-1.063l1.438-1.437c.281-.281.75-.281 1.062 0 .281.312.281.781 0 1.062L12.22 
    4.844a.816.816 0 0 1-.531.218ZM3.75 11.188c.281-.28.75-.28 1.063 
    0 .28.313.28.782 0 1.063l-1.438 1.438a.754.754 0 0 1-.531.218c-.188 
    0-.375-.094-.531-.219-.282-.312-.282-.78 0-1.062l1.437-1.438Z"/>
  </g>
</symbol>

<!-- LinkedIn light -->

<symbol id="linkedin-light-icon" viewBox="0 0 21 20" fill="none" 
xmlns="http://www.w3.org/2000/svg">
  <g clip-path="url(#clip0_132_1109)">
    <path d="M0 1.43293C0 0.641767 0.663536 0 1.48168 0H18.5693C19.3875 0 20.051 
    0.641767 20.051 1.43293V18.5679C20.051 19.359 19.3875 20 18.5693 
    20H1.48168C0.663536 20 0 19.359 0 18.5679V1.43293Z" fill="#0A66C2"/>
    <path d="M6.10107 16.7373V7.73332H3.10666V16.7373H6.10107ZM4.60467 
    6.50441C5.64861 6.50441 6.29877 5.81284 6.29877 4.94858C6.27948 4.06505 
    5.64861 3.39276 4.62476 3.39276C3.60011 3.39276 2.93066 4.06505 2.93066 
    4.94858C2.93066 5.81284 3.58001 6.50441 4.58538 6.50441H4.60467ZM7.7582 
    16.7373H10.7526V11.7092C10.7526 11.4402 10.7719 11.1711 10.8515 
    10.9791C11.0676 10.441 11.5603 9.88433 12.388 9.88433C13.4714 9.88433 
    13.9045 10.71 13.9045 11.9205V16.7365H16.8989V11.5743C16.8989 8.80883 
    15.4218 7.52208 13.4521 7.52208C11.8367 7.52208 11.1279 8.42409 10.7333 
    9.03854H10.7534V7.73332H7.7582C7.79758 8.5783 7.7582 16.7373 7.7582 16.7373Z" 
    fill="white"/>
  </g>
  <defs>
    <clipPath id="clip0_132_1109">
      <rect width="20.051" height="20" fill="white"/>
    </clipPath>
  </defs>
</symbol>

<!-- LinkedIn dark -->

<svg id="linkedin-dark-icon" viewBox="0 0 21 20" fill="none" 
xmlns="http://www.w3.org/2000/svg">
  <g clip-path="url(#clip0_132_1111)">
    <path d="M6.74087 15.2614V7.48663H4.16184V15.2614H6.74087ZM5.45204 
    6.42549C6.35117 6.42549 6.91114 5.82834 6.91114 5.08207C6.89453 4.31915 
    6.35117 3.73865 5.46935 3.73865C4.58683 3.73865 4.01025 4.31915 4.01025 
    5.08207C4.01025 5.82834 4.56953 6.42549 5.43543 6.42549H5.45204ZM8.16812 
    15.2614H10.7471V10.9197C10.7471 10.6874 10.7638 10.4551 10.8323 
    10.2893C11.0185 9.82461 11.4428 9.34398 12.1557 9.34398C13.0888 9.34398 
    13.4618 10.057 13.4618 11.1021V15.2607H16.0409V10.8032C16.0409 8.41531 
    14.7687 7.30423 13.0721 7.30423C11.6809 7.30423 11.0704 8.08309 10.7305 
    8.61366H10.7478V7.48663H8.16812C8.20204 8.21625 8.16812 15.2614 8.16812 
    15.2614Z" fill="white"/>
  </g>
  <rect x="0.5" y="0.5" width="19.051" height="19" rx="1.5" stroke="white"/>
  <defs>
    <clipPath id="clip0_132_1111">
      <rect width="20.051" height="20" rx="2" fill="white"/>
    </clipPath>
  </defs>
</svg>

<!-- Dribbble light -->

<symbol id="dribbble-light-icon" viewBox="0 0 20 20" fill="none" 
xmlns="http://www.w3.org/2000/svg">
  <rect width="20" height="20" rx="10" fill="#F9B3E5"/>
  <path d="M2 10C2 8.54933 2.35734 7.21067 3.072 5.984C3.78667 4.75733 4.75734 
  3.78667 5.984 3.072C7.21067 2.35733 8.54934 2 10 2C11.4507 2 12.7893 2.35733 
  14.016 3.072C15.2427 3.78667 16.2133 4.75733 16.928 5.984C17.6427 7.21067 18 
  8.54933 18 10C18 11.4507 17.6427 12.7893 16.928 14.016C16.2133 15.2427 15.2427 
  16.2133 14.016 16.928C12.7893 17.6427 11.4507 18 10 18C8.54934 18 7.21067 
  17.6427 5.984 16.928C4.75734 16.2133 3.78667 15.2427 3.072 14.016C2.35734 
  12.7893 2 11.4507 2 10ZM3.328 10C3.328 11.664 3.888 13.1307 5.008 14.4C5.52 
  13.3973 6.33067 12.4427 7.44 11.536C8.54934 10.6293 9.632 10.0587 10.688 
  9.824C10.528 9.45067 10.3733 9.11467 10.224 8.816C8.38934 9.40267 6.40534 9.696 
  4.272 9.696C3.856 9.696 3.54667 9.69067 3.344 9.68C3.344 9.72267 3.34134 9.776 
  3.336 9.84C3.33067 9.904 3.328 9.95733 3.328 10ZM3.536 8.352C3.77067 8.37333 
  4.11734 8.384 4.576 8.384C6.35734 8.384 8.048 8.144 9.648 7.664C8.83734 6.224 
  7.94667 5.024 6.976 4.064C6.13334 4.49067 5.41067 5.08267 4.808 5.84C4.20534 
  6.59733 3.78134 7.43467 3.536 8.352ZM5.92 15.264C7.12534 16.2027 8.48534 16.672 
  10 16.672C10.7893 16.672 11.5733 16.5227 12.352 16.224C12.1387 14.4 11.7227 
  12.6347 11.104 10.928C10.1227 11.1413 9.13334 11.68 8.136 12.544C7.13867 13.408 
  6.4 14.3147 5.92 15.264ZM8.368 3.552C9.30667 4.52267 10.176 5.73333 10.976 
  7.184C12.4267 6.576 13.52 5.80267 14.256 4.864C13.0187 3.84 11.6 3.328 10 
  3.328C9.456 3.328 8.912 3.40267 8.368 3.552ZM11.552 8.32C11.712 8.66133 11.8933 
  9.09333 12.096 9.616C12.8853 9.54133 13.744 9.504 14.672 9.504C15.3333 9.504 
  15.9893 9.52 16.64 9.552C16.5547 8.10133 16.032 6.81067 15.072 5.68C14.3787 
  6.71467 13.2053 7.59467 11.552 8.32ZM12.496 10.736C13.04 12.3147 13.408 13.936 
  13.6 15.6C14.4427 15.056 15.1307 14.3573 15.664 13.504C16.1973 12.6507 16.5173 
  11.728 16.624 10.736C15.8453 10.6827 15.136 10.656 14.496 10.656C13.9093 10.656 
  13.2427 10.6827 12.496 10.736Z" fill="#BD67A4"/>
</symbol>

<!-- Dribbble dark -->

<svg id="dribbble-dark-icon" viewBox="0 0 20 20" fill="none" 
xmlns="http://www.w3.org/2000/svg">
  <rect x="0.5" y="0.5" width="19" height="19" rx="9.5" stroke="white"/>
  <path d="M4 10C4 8.912 4.26801 7.908 4.804 6.988C5.34 6.068 6.06801 5.34 6.988 
  4.804C7.908 4.268 8.91201 4 10 4C11.088 4 12.092 4.268 13.012 4.804C13.932 5.34 
  14.66 6.068 15.196 6.988C15.732 7.908 16 8.912 16 10C16 11.088 15.732 12.092 
  15.196 13.012C14.66 13.932 13.932 14.66 13.012 15.196C12.092 15.732 11.088 16 10
    16C8.91201 16 7.908 15.732 6.988 15.196C6.06801 14.66 5.34 13.932 4.804 
    13.012C4.26801 12.092 4 11.088 4 10ZM4.996 10C4.996 11.248 5.416 12.348 6.256 
    13.3C6.64 12.548 7.248 11.832 8.08 11.152C8.91201 10.472 9.724 10.044 10.516 
    9.868C10.396 9.588 10.28 9.336 10.168 9.112C8.79201 9.552 7.30401 9.772 5.704 
    9.772C5.392 9.772 5.16 9.768 5.008 9.76C5.008 9.792 5.00601 9.832 5.002 
    9.88C4.998 9.928 4.996 9.968 4.996 10ZM5.152 8.764C5.328 8.78 5.58801 8.788 
    5.932 8.788C7.26801 8.788 8.536 8.608 9.736 8.248C9.12801 7.168 8.46 6.268 
    7.732 5.548C7.10001 5.868 6.558 6.312 6.106 6.88C5.65401 7.448 5.33601 8.076 
    5.152 8.764ZM6.94 13.948C7.84401 14.652 8.86401 15.004 10 15.004C10.592 15.004 
    11.18 14.892 11.764 14.668C11.604 13.3 11.292 11.976 10.828 10.696C10.092 
    10.856 9.35001 11.26 8.602 11.908C7.854 12.556 7.3 13.236 6.94 13.948ZM8.776 
    5.164C9.48 5.892 10.132 6.8 10.732 7.888C11.82 7.432 12.64 6.852 13.192 
    6.148C12.264 5.38 11.2 4.996 10 4.996C9.592 4.996 9.184 5.052 8.776 
    5.164ZM11.164 8.74C11.284 8.996 11.42 9.32 11.572 9.712C12.164 9.656 12.808 
    9.628 13.504 9.628C14 9.628 14.492 9.64 14.98 9.664C14.916 8.576 14.524 7.608 
    13.804 6.76C13.284 7.536 12.404 8.196 11.164 8.74ZM11.872 10.552C12.28 11.736 
    12.556 12.952 12.7 14.2C13.332 13.792 13.848 13.268 14.248 12.628C14.648 11.988
    14.888 11.296 14.968 10.552C14.384 10.512 13.852 10.492 13.372 10.492C12.932 
    10.492 12.432 10.512 11.872 10.552Z" fill="white"/>
</svg>

<!-- Behance light -->

<symbol id="behance-light-icon" viewBox="0 0 20 20" fill="none" 
xmlns="http://www.w3.org/2000/svg">
  <g clip-path="url(#clip0_132_1106)">
    <path d="M10 20C15.5228 20 20 15.5228 20 10C20 4.47715 15.5228 0 10 0C4.47715 
    0 0 4.47715 0 10C0 15.5228 4.47715 20 10 20Z" fill="#1769FF"/>
    <path d="M7.0646 5.46881C7.4958 5.46881 7.8894 5.50721 8.2454 5.58321C8.6014 
    5.65921 8.90541 5.78401 9.15901 5.95761C9.41261 6.13121 9.6094 6.36161 9.7494 
    6.64961C9.8894 6.93761 9.95901 7.29281 9.95901 7.71601C9.95901 8.17281 9.855 
    8.55361 9.64781 8.85841C9.44061 9.16321 9.13341 9.41281 8.72781 9.60721C9.2862
      9.76801 9.70301 10.0496 9.97821 10.4512C10.2534 10.8528 10.391 11.3376 10.391
      11.9048C10.391 12.3616 10.3022 12.7576 10.1246 13.092C9.947 13.4264 9.70781 
      13.6992 9.40701 13.9104C9.1062 14.1224 8.76381 14.2784 8.379 14.38C7.99181 
      14.4816 7.5926 14.5328 7.1926 14.532H2.7998V5.46881H7.0646ZM6.81101 
      9.13681C7.1662 9.13681 7.45821 9.05201 7.68701 8.88321C7.91581 8.71361 
      8.03021 8.43921 8.02941 8.05841C8.02941 7.84721 7.991 7.67361 7.91501 
      7.53841C7.839 7.40321 7.7374 7.29681 7.6102 7.22081C7.48301 7.14481 7.3374 
      7.09201 7.1726 7.06241C7.003 7.03281 6.831 7.01761 6.6582 
      7.01841H4.7934V9.13841L6.81101 9.13681ZM6.92541 12.9824C7.11341 12.9832 
      7.3006 12.964 7.4838 12.9256C7.66141 12.8872 7.8182 12.824 7.9534 
      12.7352C8.0886 12.6464 8.1966 12.5256 8.2774 12.3736C8.3574 12.2216 8.39821 
      12.0264 8.39821 11.7896C8.39821 11.3248 8.267 10.992 8.0046 10.7936C7.7422 
      10.5944 7.395 10.4952 6.9638 10.4952H4.7934V12.9832L6.92541 12.9824ZM12.8982
        12.792C13.1686 13.0544 13.5582 13.1856 14.0662 13.1856C14.4302 13.1856 
        14.743 13.0944 15.0054 12.9128C15.2678 12.7312 15.4286 12.5384 15.4878 
        12.3352H17.0742C16.8206 13.1224 16.431 13.6848 15.9062 14.0232C15.3814 
        14.3616 14.747 14.5312 14.0022 14.5312C13.4862 14.5312 13.0206 14.4488 
        12.6062 14.284C12.1918 14.1192 11.8406 13.884 11.5526 13.5792C11.2646 
        13.2744 11.0422 12.9112 10.8862 12.488C10.7302 12.0648 10.6518 11.5992 
        10.6518 11.092C10.6518 10.6016 10.7318 10.1448 10.8926 9.72161C11.0534 
        9.29841 11.2822 8.93281 11.5782 8.62401C11.8742 8.31521 12.2278 8.07201 
        12.6382 7.89441C13.0486 7.71681 13.5038 7.62801 14.003 7.62801C14.5614 
        7.62801 15.0478 7.73601 15.463 7.95201C15.8774 8.16801 16.2182 8.45761 
        16.4846 8.82161C16.751 9.18561 16.9438 9.60001 17.0622 10.0656C17.1806 
        10.5312 17.223 11.0176 17.1894 11.5256H12.455C12.4798 12.1072 12.6278 
        12.5304 12.8982 12.792ZM14.9358 9.34001C14.7198 9.10321 14.3918 8.98481 
        13.9518 8.98481C13.6638 8.98481 13.4246 9.03361 13.235 9.13041C13.0446 
        9.22801 12.8926 9.34801 12.7782 9.49201C12.6638 9.63601 12.5838 9.78801 
        12.5374 9.94881C12.491 10.1096 12.463 10.2536 12.455 10.38H15.387C15.3014 
        9.92401 15.151 9.57681 14.9358 9.34001ZM12.1462 
        5.92881H15.8094V6.94481H12.1462V5.92881Z" fill="white"/>
  </g>
  <defs>
    <clipPath id="clip0_132_1106">
      <rect width="20" height="20" fill="white"/>
    </clipPath>
  </defs>
</symbol>

<!-- Behance dark -->

<symbol id="behance-dark-icon" viewBox="0 0 20 20" fill="none" 
xmlns="http://www.w3.org/2000/svg">
  <g clip-path="url(#clip0_132_1110)">
    <path d="M7.55382 6.22388C7.91313 6.22388 8.24111 6.25588 8.53777 6.31921C8.83442 
    6.38254 9.08774 6.48653 9.29906 6.63119C9.51038 6.77585 9.67437 6.96784 9.79104 
    7.20783C9.9077 7.44781 9.96569 7.7438 9.96569 8.09645C9.96569 8.47709 9.87903 8.79441 
    9.70637 9.0484C9.53372 9.30239 9.27773 9.51037 8.93975 9.67237C9.40506 9.80636 9.75237 
    10.041 9.98169 10.3757C10.211 10.7103 10.3257 11.1143 10.3257 11.5869C10.3257 11.9676 
    10.2517 12.2976 10.1037 12.5762C9.95569 12.8549 9.75637 13.0822 9.50572 13.2582C9.25506 
    13.4348 8.96974 13.5648 8.64909 13.6495C8.32644 13.7342 7.99379 13.7768 7.66048 
    13.7762H4V6.22388H7.55382ZM7.34249 9.28039C7.63848 9.28039 7.8818 9.20972 8.07246 
    9.06906C8.26311 8.92774 8.35844 8.69908 8.35778 8.38177C8.35778 8.20577 8.32578 8.06112 
    8.26245 7.94845C8.19912 7.83579 8.11445 7.74713 8.00846 7.6838C7.90247 7.62047 7.78114 
    7.57647 7.64381 7.55181C7.50249 7.52714 7.35916 7.51448 7.21517 
    7.51514H5.66125V9.28172L7.34249 9.28039ZM7.43782 12.4849C7.59448 12.4856 7.75047 12.4696 
    7.90313 12.4376C8.05113 12.4056 8.18179 12.3529 8.29445 12.2789C8.40711 12.2049 8.4971 
    12.1042 8.56443 11.9776C8.63109 11.8509 8.66509 11.6883 8.66509 11.4909C8.66509 11.1036 
    8.55577 10.8263 8.33711 10.661C8.11845 10.495 7.82914 10.4123 7.46982 
    10.4123H5.66125V12.4856L7.43782 12.4849ZM12.4149 12.3262C12.6402 12.5449 12.9649 12.6542 
    13.3882 12.6542C13.6915 12.6542 13.9522 12.5782 14.1708 12.4269C14.3895 12.2756 14.5235 
    12.1149 14.5728 11.9456H15.8947C15.6834 12.6015 15.3587 13.0702 14.9214 13.3522C14.4841 
    13.6342 13.9555 13.7755 13.3349 13.7755C12.9049 13.7755 12.5169 13.7068 12.1716 
    13.5695C11.8263 13.4322 11.5336 13.2362 11.2936 12.9822C11.0536 12.7282 10.8683 12.4256 
    10.7383 12.0729C10.6083 11.7203 10.543 11.3323 10.543 10.9096C10.543 10.501 10.6097 
    10.1203 10.7437 9.76769C10.8776 9.41505 11.0683 9.11039 11.315 8.85308C11.5616 8.59575 
    11.8563 8.3931 12.1982 8.24511C12.5402 8.09711 12.9195 8.02312 13.3355 8.02312C13.8008 
    8.02312 14.2061 8.11311 14.5521 8.2931C14.8974 8.47309 15.1814 8.71442 
    15.4034 9.01773C15.6254 9.32105 15.7861 9.66637 15.8847 10.0543C15.9834 10.4423 16.0187 
    10.8476 15.9907 11.2709H12.0456C12.0663 11.7556 12.1896 12.1082 12.4149 12.3262ZM14.1128 
    9.44971C13.9328 9.25239 13.6595 9.15373 13.2929 9.15373C13.0529 9.15373 12.8535 9.19439 
    12.6956 9.27505C12.5369 9.35638 12.4102 9.45638 12.3149 9.57637C12.2196 9.69636 12.1529 
    9.82302 12.1142 9.95702C12.0756 10.091 12.0523 10.211 12.0456 10.3163H14.4888C14.4175 
    9.93635 14.2921 9.64703 14.1128 9.44971ZM11.7883 6.60719H14.8408V7.45381H11.7883V6.60719Z"
    fill="white"/>
  </g>
  <rect x="0.5" y="0.5" width="19" height="19" rx="9.5" stroke="white"/>
  <defs>
    <clipPath id="clip0_132_1110">
    <rect width="20" height="20" rx="10" fill="white"/> 
    </clipPath>
  </defs>
</symbol>

<!-- Card default -->

<symbol id="card-default-icon" viewBox="0 0 18 16" fill="none"
xmlns="http://www.w3.org/2000/svg">
  <path d="M2.625 7.0625C1.42969 7.0625 0.5 6.13281 0.5 4.9375V2.8125C0.5 
  1.65039 1.42969 0.6875 2.625 0.6875H15.375C16.5371 0.6875 17.5 1.65039 17.5 
  2.8125V4.9375C17.5 6.13281 16.5371 7.0625 15.375 7.0625H2.625ZM17.5 
  13.4375C17.5 14.6328 16.5371 15.5625 15.375 15.5625H2.625C1.42969 15.5625 0.5 
  14.6328 0.5 13.4375V11.3125C0.5 10.1504 1.42969 9.1875 2.625 
  9.1875H15.375C16.5371 9.1875 17.5 10.1504 17.5 11.3125V13.4375ZM15.375 
  10.7812H2.625C2.32617 10.7812 2.09375 11.0469 2.09375 11.3125V13.4375C2.09375 
  13.7363 2.32617 13.9688 2.625 13.9688H15.375C15.6406 13.9688 15.9062 13.7363 
  15.9062 13.4375V11.3125C15.9062 11.0469 15.6406 10.7812 15.375 10.7812Z" 
  fill="currentColor"/>
</symbol>

<!-- Card small -->

<symbol id="card-small-icon" viewBox="0 0 16 16" fill="none" 
xmlns="http://www.w3.org/2000/svg">
  <path d="M6.9375 2.28125V5.46875C6.9375 6.36523 6.20703 7.0625 5.34375 
  7.0625H2.15625C1.25977 7.0625 0.5625 6.36523 0.5625 5.46875V2.28125C0.5625 
  1.41797 1.25977 0.6875 2.15625 0.6875H5.34375C6.20703 0.6875 6.9375 1.41797 
  6.9375 2.28125ZM6.9375 10.7812V13.9688C6.9375 14.8652 6.20703 15.5625 5.34375 
  15.5625H2.15625C1.25977 15.5625 0.5625 14.8652 0.5625 13.9688V10.7812C0.5625 
  9.91797 1.25977 9.1875 2.15625 9.1875H5.34375C6.20703 9.1875 6.9375 9.91797 
  6.9375 10.7812ZM9.0625 2.28125C9.0625 1.41797 9.75977 0.6875 10.6562 
  0.6875H13.8438C14.707 0.6875 15.4375 1.41797 15.4375 2.28125V5.46875C15.4375 
  6.36523 14.707 7.0625 13.8438 7.0625H10.6562C9.75977 7.0625 9.0625 6.36523 
  9.0625 5.46875V2.28125ZM15.4375 10.7812V13.9688C15.4375 14.8652 14.707 
  15.5625 13.8438 15.5625H10.6562C9.75977 15.5625 9.0625 14.8652 9.0625 
  13.9688V10.7812C9.0625 9.91797 9.75977 9.1875 10.6562 9.1875H13.8438C14.707 
  9.1875 15.4375 9.91797 15.4375 10.7812Z" fill="currentColor"/>
</symbol>

<!-- Card row -->

<symbol id="card-row-icon" viewBox="0 0 16 13" fill="none" 
xmlns="http://www.w3.org/2000/svg">
  <path d="M0.5625 1.54688C0.5625 1.11523 0.894531 0.75 1.35938 
  0.75H14.6406C15.0723 0.75 15.4375 1.11523 15.4375 1.54688C15.4375 2.01172 
  15.0723 2.34375 14.6406 2.34375H1.35938C0.894531 2.34375 0.5625 2.01172 
  0.5625 1.54688ZM0.5625 6.85938C0.5625 6.42773 0.894531 6.0625 1.35938 
  6.0625H14.6406C15.0723 6.0625 15.4375 6.42773 15.4375 6.85938C15.4375 
  7.32422 15.0723 7.65625 14.6406 7.65625H1.35938C0.894531 7.65625 0.5625 
  7.32422 0.5625 6.85938ZM14.6406 12.9688H1.35938C0.894531 12.9688 0.5625 
  12.6367 0.5625 12.1719C0.5625 11.7402 0.894531 11.375 1.35938 
  11.375H14.6406C15.0723 11.375 15.4375 11.7402 15.4375 12.1719C15.4375 
  12.6367 15.0723 12.9688 14.6406 12.9688Z" fill="currentColor"/>
</symbol>

<!-- Arrow left -->

<symbol id="left-arrow-icon" viewBox="0 0 11 11" fill="none" 
xmlns="http://www.w3.org/2000/svg">
  <path d="M10.7266 5.5C10.7266 5.82812 10.4688 6.08594 10.1641 
  6.08594H2.19531L5.3125 9.03906C5.54688 9.25 5.54688 9.625 5.33594 
  9.83594C5.125 10.0703 4.77344 10.0703 4.53906 9.85938L0.414062 5.92188C0.296875 
  5.80469 0.25 5.66406 0.25 5.5C0.25 5.35938 0.296875 5.21875 0.414062 
  5.10156L4.53906 1.16406C4.77344 0.953125 5.125 0.953125 5.33594 1.1875C5.54688 
  1.39844 5.54688 1.77344 5.3125 1.98438L2.19531 4.9375H10.1641C10.4922 4.9375 
  10.7266 5.19531 10.7266 5.5Z" fill="currentColor"/>
</symbol>

<!-- Envelope -->

<symbol id="email-icon" viewBox="0 0 12 9" fill="none" 
xmlns="http://www.w3.org/2000/svg">
  <path d="M0 1.5C0 0.679688 0.65625 0 1.5 0H10.5C11.3203 0 12 0.679688 12 
  1.5V7.5C12 8.34375 11.3203 9 10.5 9H1.5C0.65625 9 0 8.34375 0 
  7.5V1.5ZM1.125 1.5V2.03906L5.15625 5.34375C5.64844 5.74219 6.32812 5.74219
    6.82031 5.34375L10.875 2.03906V1.5C10.875 1.3125 10.6875 1.125 10.5 
    1.125H1.5C1.28906 1.125 1.125 1.3125 1.125 1.5ZM1.125 3.49219V7.5C1.125 
    7.71094 1.28906 7.875 1.5 7.875H10.5C10.6875 7.875 10.875 7.71094 10.875
    7.5V3.49219L7.54688 6.21094C6.63281 6.96094 5.34375 6.96094 4.42969 
    6.21094L1.125 3.49219Z" fill="currentColor"/>
</symbol>

<!-- Smartphone -->

<symbol id="phone-icon" viewBox="0 0 10 13" fill="none" 
xmlns="http://www.w3.org/2000/svg">
  <path d="M7.625 0.5C8.44531 0.5 9.125 1.17969 9.125 2V11C9.125 11.8438 
  8.44531 12.5 7.625 12.5H2.375C1.53125 12.5 0.875 11.8438 0.875 11V2C0.875 
  1.17969 1.53125 0.5 2.375 0.5H7.625ZM8 11V2C8 1.8125 7.8125 1.625 7.625 
  1.625H2.375C2.16406 1.625 2 1.8125 2 2V11C2 11.2109 2.16406 11.375 2.375 
  11.375H7.625C7.8125 11.375 8 11.2109 8 11ZM5 9.6875C5.30469 9.6875 5.5625 
  9.94531 5.5625 10.25C5.5625 10.5781 5.30469 10.8125 5 10.8125C4.67188 
  10.8125 4.4375 10.5781 4.4375 10.25C4.4375 9.94531 4.67188 9.6875 5 
  9.6875Z" fill="currentColor"/>
</symbol>

<!-- LinkedIn -->

<symbol id="linkedin-icon" viewBox="0 0 11 11" fill="none" 
xmlns="http://www.w3.org/2000/svg">
  <path d="M10.25 0.25C10.6484 0.25 11 0.601562 11 1.02344V10C11 10.4219 
  10.6484 10.75 10.25 10.75H1.22656C0.828125 10.75 0.5 10.4219 0.5 
  10V1.02344C0.5 0.601562 0.828125 0.25 1.22656 0.25H10.25ZM3.66406 
  9.25V4.25781H2.11719V9.25H3.66406ZM2.89062 3.55469C3.38281 3.55469 
  3.78125 3.15625 3.78125 2.66406C3.78125 2.17188 3.38281 1.75 2.89062 
  1.75C2.375 1.75 1.97656 2.17188 1.97656 2.66406C1.97656 3.15625 2.375 
  3.55469 2.89062 3.55469ZM9.5 9.25V6.50781C9.5 5.17188 9.19531 4.11719 
  7.625 4.11719C6.875 4.11719 6.35938 4.53906 6.14844 
  4.9375H6.125V4.25781H4.64844V9.25H6.19531V6.78906C6.19531 6.13281 6.3125 
  5.5 7.13281 5.5C7.92969 5.5 7.92969 6.25 7.92969 6.8125V9.25H9.5Z" 
  fill="currentColor"/>
</symbol>

<!-- Github -->

<symbol id="github-icon" viewBox="0 0 12 13" fill="none" 
xmlns="http://www.w3.org/2000/svg">
  <path d="M3.86719 9.82812C3.86719 9.78125 3.82031 9.73438 3.75 
  9.73438C3.67969 9.73438 3.63281 9.78125 3.63281 9.82812C3.63281 9.875 
  3.67969 9.92188 3.75 9.89844C3.82031 9.89844 3.86719 9.875 3.86719 
  9.82812ZM3.14062 9.71094C3.16406 9.66406 3.23438 9.64062 3.30469 
  9.66406C3.375 9.6875 3.39844 9.73438 3.39844 9.78125C3.375 9.82812 
  3.30469 9.85156 3.25781 9.82812C3.1875 9.82812 3.14062 9.75781 3.14062 
  9.71094ZM4.19531 9.6875C4.24219 9.66406 4.3125 9.71094 4.3125 
  9.75781C4.33594 9.80469 4.28906 9.82812 4.21875 9.85156C4.14844 9.875 
  4.07812 9.85156 4.07812 9.80469C4.07812 9.73438 4.125 9.6875 4.19531 
  9.6875ZM5.71875 0.6875C8.97656 0.6875 11.625 3.17188 11.625 
  6.40625C11.625 9.00781 10.0312 11.2344 7.6875 12.0078C7.38281 12.0781 
  7.26562 11.8906 7.26562 11.7266C7.26562 11.5391 7.28906 10.5547 7.28906 
  9.78125C7.28906 9.21875 7.10156 8.86719 6.89062 8.67969C8.20312 8.53906 
  9.58594 8.35156 9.58594 6.10156C9.58594 5.44531 9.35156 5.14062 8.97656 
  4.71875C9.02344 4.55469 9.23438 3.94531 8.90625 3.125C8.41406 2.96094 
  7.28906 3.75781 7.28906 3.75781C6.82031 3.61719 6.32812 3.57031 5.8125 
  3.57031C5.32031 3.57031 4.82812 3.61719 4.35938 3.75781C4.35938 3.75781 
  3.21094 2.98438 2.74219 3.125C2.41406 3.94531 2.60156 4.55469 2.67188 
  4.71875C2.29688 5.14062 2.10938 5.44531 2.10938 6.10156C2.10938 8.35156 
  3.44531 8.53906 4.75781 8.67969C4.57031 8.84375 4.42969 9.10156 4.38281 
  9.47656C4.03125 9.64062 3.1875 9.89844 2.67188 8.98438C2.34375 8.42188 
  1.75781 8.375 1.75781 8.375C1.19531 8.375 1.73438 8.75 1.73438 
  8.75C2.10938 8.91406 2.36719 9.59375 2.36719 9.59375C2.71875 10.6484 
  4.35938 10.2969 4.35938 10.2969C4.35938 10.7891 4.35938 11.5859 4.35938 
  11.75C4.35938 11.8906 4.26562 12.0781 3.96094 12.0312C1.61719 11.2344 0 
  9.00781 0 6.40625C0 3.17188 2.48438 0.6875 5.71875 0.6875ZM2.27344 
  8.77344C2.29688 8.75 2.34375 8.77344 2.39062 8.79688C2.4375 8.84375 
  2.4375 8.91406 2.41406 8.9375C2.36719 8.96094 2.32031 8.9375 2.27344 
  8.91406C2.25 8.86719 2.22656 8.79688 2.27344 8.77344ZM2.01562 
  8.58594C2.03906 8.5625 2.0625 8.5625 2.10938 8.58594C2.15625 8.60938 
  2.17969 8.63281 2.17969 8.65625C2.15625 8.70312 2.10938 8.70312 2.0625 
  8.67969C2.01562 8.65625 1.99219 8.63281 2.01562 8.58594ZM2.76562 
  9.42969C2.8125 9.38281 2.88281 9.40625 2.92969 9.45312C2.97656 9.5 
  2.97656 9.57031 2.95312 9.59375C2.92969 9.64062 2.85938 9.61719 2.8125 
  9.57031C2.74219 9.52344 2.74219 9.45312 2.76562 9.42969ZM2.50781 
  9.07812C2.55469 9.05469 2.60156 9.07812 2.64844 9.125C2.67188 9.17188 
  2.67188 9.24219 2.64844 9.26562C2.60156 9.28906 2.55469 9.26562 2.50781 
  9.21875C2.46094 9.17188 2.46094 9.10156 2.50781 9.07812Z" 
  fill="currentColor"/>
</symbol>

</svg>
