<svg width="11" height="11" viewBox="0 0 11 11" fill="none" xmlns="http://www.w3.org/2000/svg">
<path d="M10.25 0.25C10.6484 0.25 11 0.601562 11 1.02344V10C11 10.4219 10.6484 10.75 10.25 10.75H1.22656C0.828125 10.75 0.5 10.4219 0.5 10V1.02344C0.5 0.601562 0.828125 0.25 1.22656 0.25H10.25ZM3.66406 9.25V4.25781H2.11719V9.25H3.66406ZM2.89062 3.55469C3.38281 3.55469 3.78125 3.15625 3.78125 2.66406C3.78125 2.17188 3.38281 1.75 2.89062 1.75C2.375 1.75 1.97656 2.17188 1.97656 2.66406C1.97656 3.15625 2.375 3.55469 2.89062 3.55469ZM9.5 9.25V6.50781C9.5 5.17188 9.19531 4.11719 7.625 4.11719C6.875 4.11719 6.35938 4.53906 6.14844 4.9375H6.125V4.25781H4.64844V9.25H6.19531V6.78906C6.19531 6.13281 6.3125 5.5 7.13281 5.5C7.92969 5.5 7.92969 6.25 7.92969 6.8125V9.25H9.5Z" fill="white"/>
</svg>
