<svg width="21" height="20" viewBox="0 0 21 20" fill="none" xmlns="http://www.w3.org/2000/svg">
<g clip-path="url(#clip0_132_1109)">
<path d="M0 1.43293C0 0.641767 0.663536 0 1.48168 0H18.5693C19.3875 0 20.051 0.641767 20.051 1.43293V18.5679C20.051 19.359 19.3875 20 18.5693 20H1.48168C0.663536 20 0 19.359 0 18.5679V1.43293Z" fill="#0A66C2"/>
<path d="M6.10107 16.7373V7.73332H3.10666V16.7373H6.10107ZM4.60467 6.50441C5.64861 6.50441 6.29877 5.81284 6.29877 4.94858C6.27948 4.06505 5.64861 3.39276 4.62476 3.39276C3.60011 3.39276 2.93066 4.06505 2.93066 4.94858C2.93066 5.81284 3.58001 6.50441 4.58538 6.50441H4.60467ZM7.7582 16.7373H10.7526V11.7092C10.7526 11.4402 10.7719 11.1711 10.8515 10.9791C11.0676 10.441 11.5603 9.88433 12.388 9.88433C13.4714 9.88433 13.9045 10.71 13.9045 11.9205V16.7365H16.8989V11.5743C16.8989 8.80883 15.4218 7.52208 13.4521 7.52208C11.8367 7.52208 11.1279 8.42409 10.7333 9.03854H10.7534V7.73332H7.7582C7.79758 8.5783 7.7582 16.7373 7.7582 16.7373Z" fill="white"/>
</g>
<defs>
<clipPath id="clip0_132_1109">
<rect width="20.051" height="20" fill="white"/>
</clipPath>
</defs>
</svg>
