<svg width="21" height="20" viewBox="0 0 21 20" fill="none" xmlns="http://www.w3.org/2000/svg">
<g clip-path="url(#clip0_132_1111)">
<path d="M6.74087 15.2614V7.48663H4.16184V15.2614H6.74087ZM5.45204 6.42549C6.35117 6.42549 6.91114 5.82834 6.91114 5.08207C6.89453 4.31915 6.35117 3.73865 5.46935 3.73865C4.58683 3.73865 4.01025 4.31915 4.01025 5.08207C4.01025 5.82834 4.56953 6.42549 5.43543 6.42549H5.45204ZM8.16812 15.2614H10.7471V10.9197C10.7471 10.6874 10.7638 10.4551 10.8323 10.2893C11.0185 9.82461 11.4428 9.34398 12.1557 9.34398C13.0888 9.34398 13.4618 10.057 13.4618 11.1021V15.2607H16.0409V10.8032C16.0409 8.41531 14.7687 7.30423 13.0721 7.30423C11.6809 7.30423 11.0704 8.08309 10.7305 8.61366H10.7478V7.48663H8.16812C8.20204 8.21625 8.16812 15.2614 8.16812 15.2614Z" fill="white"/>
</g>
<rect x="0.5" y="0.5" width="19.051" height="19" rx="1.5" stroke="white"/>
<defs>
<clipPath id="clip0_132_1111">
<rect width="20.051" height="20" rx="2" fill="white"/>
</clipPath>
</defs>
</svg>
