<svg width="30" height="30" viewBox="0 0 30 30" fill="none" xmlns="http://www.w3.org/2000/svg">
<g clip-path="url(#clip0_107_1206)">
<path d="M8.0437 23.2687V9.33749L15.0187 16.3125L21.9656 9.33749V23.2687" stroke="white" stroke-width="2.29" stroke-miterlimit="10"/>
<path d="M26.7 30H3.30938C2.4333 30 1.59296 29.6526 0.972602 29.034C0.352242 28.4154 0.00248181 27.5761 0 26.7L0 0L3.06562 2.22187L6.0375 0V5.24063H4.60312V2.8125L3.075 3.99375L1.43437 2.8125V26.7C1.43437 27.1973 1.63192 27.6742 1.98355 28.0258C2.33518 28.3775 2.81209 28.575 3.30938 28.575H26.7469C27.2442 28.575 27.7211 28.3775 28.0727 28.0258C28.4243 27.6742 28.6219 27.1973 28.6219 26.7V3.2625C28.6219 2.76522 28.4243 2.28831 28.0727 1.93667C27.7211 1.58504 27.2442 1.3875 26.7469 1.3875H8.38125V0H26.7C27.5745 0.00247372 28.4124 0.350946 29.0307 0.96928C29.6491 1.58761 29.9975 2.42555 30 3.3V26.7375C29.9877 27.6054 29.6349 28.4338 29.0176 29.0441C28.4003 29.6543 27.568 29.9976 26.7 30Z" fill="white"/>
</g>
<defs>
<clipPath id="clip0_107_1206">
<rect width="30" height="30" fill="white"/>
</clipPath>
</defs>
</svg>
