<svg width="10" height="13" viewBox="0 0 10 13" fill="none" xmlns="http://www.w3.org/2000/svg">
<path d="M7.625 0.5C8.44531 0.5 9.125 1.17969 9.125 2V11C9.125 11.8438 8.44531 12.5 7.625 12.5H2.375C1.53125 12.5 0.875 11.8438 0.875 11V2C0.875 1.17969 1.53125 0.5 2.375 0.5H7.625ZM8 11V2C8 1.8125 7.8125 1.625 7.625 1.625H2.375C2.16406 1.625 2 1.8125 2 2V11C2 11.2109 2.16406 11.375 2.375 11.375H7.625C7.8125 11.375 8 11.2109 8 11ZM5 9.6875C5.30469 9.6875 5.5625 9.94531 5.5625 10.25C5.5625 10.5781 5.30469 10.8125 5 10.8125C4.67188 10.8125 4.4375 10.5781 4.4375 10.25C4.4375 9.94531 4.67188 9.6875 5 9.6875Z" fill="white"/>
</svg>
