<svg xmlns="http://www.w3.org/2000/svg" width="16" height="16" fill="none"><path fill="#001021" d="M8 4.5c1.906 0 3.5 1.594 3.5 3.5 0 1.938-1.594 3.5-3.5 3.5A3.494 3.494 0 0 1 4.5 8c0-1.906 1.563-3.5 3.5-3.5ZM8 10c1.094 0 2-.875 2-2 0-1.094-.906-2-2-2-1.125 0-2 .906-2 2 0 1.125.875 2 2 2Zm0-6.5a.722.722 0 0 1-.75-.75v-2A.74.74 0 0 1 8 0a.76.76 0 0 1 .75.75v2A.74.74 0 0 1 8 3.5Zm0 9a.76.76 0 0 1 .75.75v2A.74.74 0 0 1 8 16a.722.722 0 0 1-.75-.75v-2A.74.74 0 0 1 8 12.5Zm7.25-5.25A.76.76 0 0 1 16 8a.74.74 0 0 1-.75.75h-2A.722.722 0 0 1 12.5 8a.74.74 0 0 1 .75-.75h2ZM3.5 8a.74.74 0 0 1-.75.75h-2A.722.722 0 0 1 0 8a.74.74 0 0 1 .75-.75h2A.76.76 0 0 1 3.5 8Zm8.719 3.188 1.437 1.437c.281.281.281.75 0 1.063-.156.124-.344.218-.531.218a.754.754 0 0 1-.531-.219l-1.438-1.437c-.281-.281-.281-.75 0-1.063.313-.28.781-.28 1.063 0ZM3.75 4.843 2.312 3.406c-.28-.281-.28-.75 0-1.062.313-.281.782-.281 1.063 0L4.813 3.78c.28.281.28.75 0 1.063-.157.125-.344.218-.532.218a.815.815 0 0 1-.531-.218Zm7.938.218c-.188 0-.376-.093-.532-.218-.281-.313-.281-.782 0-1.063l1.438-1.437c.281-.281.75-.281 1.062 0 .281.312.281.781 0 1.062L12.22 4.844a.816.816 0 0 1-.531.218ZM3.75 11.188c.281-.28.75-.28 1.063 0 .28.313.28.782 0 1.063l-1.438 1.438a.754.754 0 0 1-.531.218c-.188 0-.375-.094-.531-.219-.282-.312-.282-.78 0-1.062l1.437-1.438Z"/></svg>