<?xml version="1.0" encoding="UTF-8"?>
<svg id="University_logos" data-name="University logos" xmlns="http://www.w3.org/2000/svg" viewBox="0 0 30 30">
  <defs>
    <style>
      .cls-1 {
        fill: #20244f;
        stroke-width: 0px;
      }
    </style>
  </defs>
  <path class="cls-1" d="M26.88,21.66c-.64-.3-1.28-.42-2.37-1.18-2.79-1.97-4.02-4.24-2.24-9.07,1.04-2.79,1.43-4.86,1.36-7.54-.02-.02-.15-.1-.17-.12-.54,3.35-1.48,5-3.55,8.41-4.71,7.67-.27,12.35,1.82,14.03,1.9-.94,3.92-2.56,5.15-4.51"/>
  <path class="cls-1" d="M17.64,11.84c3.28-4.17,4.63-5.89,4.93-8.68l-.17-.1c-.89,3.38-2.74,4.86-8.23,8.65-5.72,3.94-5.52,9.91-3.97,14.27,1.82.94,3.85,1.43,5.89,1.43.44,0,.89-.02,1.33-.07-3.92-6.29-3.6-10.65.22-15.51"/>
  <path class="cls-1" d="M15.39,8.71c3.72-1.85,5.4-3.7,6.11-6.06-.02-.02-.17-.07-.17-.07-2.12,3.62-4.73,3.9-10.7,4.88-3.43.57-5.3,2.07-7.22,4.19-.2.91-.3,1.82-.3,2.74-.02,3.03,1.04,5.99,2.98,8.33.1-9.74,4.63-11.71,9.29-14"/>
</svg>