<?xml version="1.0" encoding="UTF-8"?>
<svg id="Layer_1" data-name="Layer 1" xmlns="http://www.w3.org/2000/svg" viewBox="0 0 30 30">
  <defs>
    <style>
      .cls-1 {
        fill: #52c2ba;
        stroke-width: 0px;
      }
    </style>
  </defs>
  <path id="Digitalguest" class="cls-1" d="M2.6,14.46c-.17-5.8,5.19-11.11,10.88-11.79,7.22-.86,13.3,4.62,13.94,10.89.07.71.09,1.44-.02,2.14-.28,1.83-1.97,3.02-3.99,2.87-1.81-.13-3.21-1.63-3.26-3.49-.05-2.25-1.35-4.1-3.43-4.86-2.09-.77-4.55.01-5.86,1.87-1.31,1.85-1.24,4.36.15,6.07.99,1.22,2.25,1.85,3.84,1.91,2.59.1,4.27,2.14,3.76,4.52-.34,1.57-1.81,2.81-3.45,2.83-2.88.05-5.48-.77-7.74-2.56-3.17-2.52-4.8-5.8-4.82-10.41Z"/>
</svg>