<?xml version="1.0" encoding="UTF-8"?>
<svg id="Layer_1" data-name="Layer 1" xmlns="http://www.w3.org/2000/svg" viewBox="0 0 30 30">
  <defs>
    <style>
      .cls-1 {
        fill: #035976;
      }

      .cls-1, .cls-2, .cls-3, .cls-4 {
        stroke-width: 0px;
      }

      .cls-2 {
        fill: #679aaa;
      }

      .cls-3 {
        fill: #045a76;
      }

      .cls-4 {
        fill: #6799ad;
      }
    </style>
  </defs>
  <g id="EasyR_Colored" data-name="EasyR Colored">
    <path id="R" class="cls-4" d="M27.46,22.48c-.04-.05-.05,0-.07.02-.26.29-.57.26-.79-.06-.51-.77-.98-1.56-1.47-2.35-.05-.08-.11-.12-.2-.12-.36,0-.71,0-1.07,0-.1,0-.14.03-.14.13,0,.71,0,1.43,0,2.14,0,.26-.15.42-.42.42-.33,0-.49-.13-.49-.42,0-2.04,0-4.09,0-6.13,0-.3.14-.44.44-.44.57,0,1.14-.01,1.7,0,.73.02,1.38.24,1.84.85.21.28.32.61.36.96.1.93-.12,1.71-1.06,2.22-.08.04-.1.07-.05.15.45.72.9,1.44,1.36,2.17,0,.01.02.02.03.03,0,0,.01-.01.02-.02v.42ZM23.74,17.82c0,.38,0,.77,0,1.15,0,.1.03.14.14.14.39,0,.79.01,1.18,0,.36-.02.7-.14.95-.42.37-.43.36-.92.14-1.41-.21-.48-.62-.7-1.12-.72-.38-.02-.77,0-1.15,0-.12,0-.14.04-.14.15,0,.38,0,.76,0,1.13Z"/>
    <path id="y" class="cls-1" d="M18.96,24.84c0-.06-.05-.06-.08-.08-.22-.13-.29-.28-.2-.52.17-.43.37-.85.55-1.28.1-.23.2-.47.31-.69.05-.09.03-.17-.01-.26-.64-1.19-1.27-2.38-1.9-3.58-.15-.28-.11-.51.11-.63.23-.12.5-.02.63.25.51,1.02,1.01,2.04,1.52,3.06.02.04.03.09.08.12.05-.04.06-.1.09-.15.46-1.02.93-2.05,1.39-3.07.12-.26.28-.33.55-.22.25.1.35.27.24.53-.19.48-.41.95-.62,1.42-.73,1.62-1.45,3.24-2.18,4.86-.05.11-.15.15-.23.22h-.26Z"/>
    <path id="s" class="cls-1" d="M15.32,22.71c-.6,0-1.18-.12-1.71-.43-.09-.06-.18-.11-.26-.19-.21-.22-.22-.45-.02-.68.17-.19.43-.19.65-.02.53.42,1.1.62,1.78.46.12-.03.24-.08.34-.15.28-.2.31-.52.08-.77-.2-.22-.47-.31-.74-.38-.35-.09-.71-.12-1.05-.25-.21-.08-.41-.19-.58-.34-.63-.56-.53-1.5.19-1.94.34-.2.71-.29,1.1-.3.52-.01,1.03.06,1.49.34.17.1.33.22.45.39.12.17.13.35.01.49-.12.15-.32.2-.51.12-.11-.04-.19-.12-.28-.19-.49-.39-1.04-.44-1.62-.24-.2.07-.36.2-.36.43,0,.23.14.38.33.49.24.14.51.17.77.23.37.09.75.14,1.1.32.4.21.7.5.75.97.04.44-.07.83-.4,1.15-.42.4-.94.5-1.5.49Z"/>
    <path id="a" class="cls-1" d="M11.73,21.95c-.07,0-.09.05-.12.08-.39.43-.88.64-1.46.67-.75.04-1.38-.21-1.87-.78-.3-.34-.44-.75-.53-1.19-.13-.67-.04-1.3.32-1.89.42-.69,1.08-1.04,1.85-1.1,1.37-.12,2.47.72,2.69,2.01.01.06.02.13.02.19,0,.77,0,1.55,0,2.32,0,.26-.16.42-.42.42-.31,0-.48-.15-.49-.42,0-.11,0-.21,0-.32ZM11.77,20.19c0-.21-.05-.47-.17-.71-.4-.84-1.38-1.19-2.16-.74-.63.36-.89.94-.85,1.66.05.83.78,1.52,1.6,1.52.87,0,1.58-.75,1.58-1.73Z"/>
    <path id="E" class="cls-1" d="M2.62,15.89c.05.02.06-.03.09-.06.1-.12.23-.17.39-.17,1.36,0,2.72,0,4.09,0,.28,0,.44.18.44.47,0,.27-.16.42-.45.42-1.13,0-2.26,0-3.39,0-.15,0-.2.04-.2.2,0,.59,0,1.19,0,1.78,0,.14.04.19.18.18.8,0,1.6,0,2.4,0,.37,0,.57.34.39.66-.1.18-.27.22-.46.22-.77,0-1.55,0-2.32,0-.16,0-.21.04-.21.21,0,.59,0,1.19,0,1.78q0,.22.22.22c1.14,0,2.27,0,3.41,0,.22,0,.35.11.4.33.05.21-.02.41-.18.51-.06.03-.12.04-.19.04-1.39,0-2.79,0-4.18,0-.15,0-.27-.04-.36-.18-.02-.03-.03-.06-.07-.05v-6.55Z"/>
    <path id="Bottom_wave" data-name="Bottom wave" class="cls-3" d="M23.76,13.3c-.37-.19-.75-.33-1.16-.4-.85-.14-1.67-.01-2.48.21-.52.15-1.02.35-1.51.58-.59.27-1.19.48-1.84.54-.75.06-1.45-.12-2.1-.48-.77-.43-1.41-1.01-2.01-1.64-.58-.62-1.09-1.3-1.59-1.99-.09-.13-.07-.21.07-.28.11-.05.22-.06.35-.03.35.1.63.32.9.56.35.32.66.69,1.02.99.66.56,1.41.91,2.29.95,1.27.06,2.44-.27,3.52-.91.34-.2.68-.42,1.05-.57.94-.4,1.77-.25,2.49.48.52.52.77,1.18.99,1.85.01.04,0,.07.01.11,0,0,0,0-.01.01Z"/>
    <path id="Top_wave" data-name="Top wave" class="cls-2" d="M14,5.16c-.03.06.02.05.05.06.93.15,1.69.63,2.38,1.23.9.77,1.64,1.68,2.34,2.64.06.08.11.16.18.23.08.09.05.16-.03.22-.14.1-.29.1-.45.05-.34-.1-.61-.32-.86-.55-.32-.3-.62-.62-.95-.91-.87-.79-1.89-1.13-3.07-1.02-1.14.11-2.18.47-3.14,1.09-.42.27-.86.49-1.36.58-.65.11-1.2-.09-1.69-.51-.65-.56-.95-1.3-1.18-2.09,0-.01,0-.03,0-.07.25.13.5.25.77.33.87.23,1.74.17,2.61-.05.59-.15,1.15-.36,1.7-.61.53-.25,1.07-.45,1.65-.55.02,0,.04-.01.06-.02.02-.02,0-.02,0-.03h1.01Z"/>
  </g>
</svg>