<?xml version="1.0" encoding="UTF-8"?>
<svg id="University_logos" data-name="University logos" xmlns="http://www.w3.org/2000/svg" viewBox="0 0 30 30">
  <defs>
    <style>
      .cls-1 {
        fill: #fff;
        stroke-width: 0px;
      }
    </style>
  </defs>
  <path class="cls-1" d="M11.08,3.81c.09,0,.18.02.27.02.62.04,1.23.14,1.83.27,1.27.28,2.48.73,3.65,1.29,1.37.66,2.64,1.47,3.82,2.42.23.18.46.37.68.56.02.01.03.03.05.05-.03.01-.04,0-.05-.01-.9-.75-1.86-1.41-2.88-1.99-1.4-.8-2.87-1.42-4.44-1.8-.55-.13-1.1-.23-1.67-.28-.39-.04-.77-.06-1.16-.05-.9.02-1.77.15-2.61.48-.77.3-1.45.73-2.02,1.33-.6.63-1,1.37-1.23,2.21-.12.42-.19.85-.22,1.29-.06.84.02,1.67.2,2.5.2.9.5,1.76.89,2.59.65,1.39,1.49,2.66,2.47,3.83.5.6,1.04,1.17,1.61,1.72.89.85,1.84,1.61,2.86,2.29,1.15.76,2.35,1.4,3.64,1.9.93.36,1.89.63,2.87.79.2.03.39.07.59.08.23.01.47.05.7.06.24,0,.48.01.71,0,1.06-.03,2.09-.23,3.05-.71.78-.39,1.43-.94,1.93-1.65.01-.02.02-.04.05-.05,0,.03-.02.05-.03.07-.52.88-1.24,1.56-2.13,2.05-.74.41-1.53.65-2.37.77-.61.09-1.22.11-1.83.09-.49-.02-.98-.07-1.47-.16-.11-.02-.22.02-.32.04-.58.12-1.17.22-1.76.29-.44.05-.89.09-1.34.11-.12,0-.24,0-.35.02h-1.57s-.04,0-.05,0c-.18,0-.37-.02-.55-.03-.43-.02-.85-.07-1.27-.12-.77-.1-1.53-.23-2.28-.42-1.41-.35-2.76-.84-4.01-1.59-.69-.42-1.33-.92-1.85-1.55-.4-.48-.7-1.02-.85-1.63-.03-.14-.05-.28-.07-.42,0-.19,0-.38,0-.57,0-.01,0-.03,0-.04.04-.36.14-.71.3-1.03.31-.64.77-1.15,1.31-1.6.44-.36.91-.66,1.41-.93.05-.03.07-.04.03-.1-.2-.34-.38-.68-.55-1.04-.37-.75-.67-1.53-.9-2.34-.23-.82-.37-1.64-.39-2.49-.01-.45.01-.91.08-1.36.09-.62.26-1.21.52-1.77.5-1.06,1.26-1.87,2.27-2.45.9-.52,1.88-.79,2.91-.89.14-.01.28-.03.42-.04.36,0,.72,0,1.08,0ZM17.65,25.52s0-.01,0-.02c-.04-.01-.07-.02-.11-.03-.53-.14-1.06-.31-1.58-.51-1.12-.43-2.19-.96-3.21-1.59-1.4-.86-2.67-1.87-3.84-3.02-.3-.3-.59-.6-.88-.91-.44-.48-.85-.99-1.24-1.51-.29-.39-.57-.8-.83-1.21-.02-.04-.04-.06-.09-.03-.59.39-1.13.84-1.54,1.43-.53.76-.74,1.59-.5,2.51.17.66.54,1.21,1,1.71.62.66,1.36,1.16,2.16,1.58,1.23.64,2.54,1.05,3.9,1.34.56.12,1.12.21,1.69.28.38.05.76.08,1.15.1.22.01.45.02.67.03.43.02.85.02,1.28,0,.43-.01.87-.04,1.3-.08.22-.02.44-.05.67-.07Z"/>
  <path class="cls-1" d="M27.44,13.39c-.29,0-.58,0-.87,0-.19,0-.39,0-.58,0-.06,0-.09.02-.09.08,0,.19,0,.38,0,.57,0,.06.02.08.09.08.31,0,.62,0,.93,0,.09,0,.09,0,.09.09,0,.11,0,.22,0,.33,0,.06-.02.09-.08.09-.31,0-.62,0-.93,0-.1,0-.1,0-.1.1,0,.25,0,.51,0,.76,0,.07.02.09.09.09.45,0,.89,0,1.34,0,.1,0,.1,0,.1.11,0,.12,0,.23,0,.35,0,.06-.02.08-.08.08-.66,0-1.33,0-1.99,0-.06,0-.08-.02-.08-.08,0-1.03,0-2.07,0-3.1,0-.05,0-.08.07-.08.69,0,1.38,0,2.06,0,0,0,.02,0,.03,0v.52Z"/>
  <path class="cls-1" d="M8.13,14.49c0-.51,0-1.02,0-1.53,0-.09,0-.09.09-.09.66,0,1.31,0,1.97,0,.1,0,.1,0,.1.1,0,.11,0,.22,0,.33q0,.1-.1.1c-.45,0-.9,0-1.34,0-.1,0-.1,0-.1.1,0,.19,0,.37,0,.56,0,.07.02.08.09.08.31,0,.62,0,.93,0,.09,0,.09,0,.09.09,0,.11,0,.22,0,.33,0,.06-.02.09-.08.08-.31,0-.62,0-.93,0-.1,0-.1,0-.1.1,0,.25,0,.51,0,.76,0,.07.02.09.09.09.45,0,.89,0,1.34,0,.1,0,.1,0,.1.1,0,.12,0,.24,0,.36,0,.05-.02.08-.07.07-.67,0-1.33,0-2,0-.07,0-.07-.04-.07-.09,0-.51,0-1.03,0-1.54Z"/>
  <path class="cls-1" d="M20.74,14.76c0,.42,0,.84,0,1.26q0,.1-.11.1c-.14,0-.28,0-.41,0-.09,0-.1,0-.1-.1,0-.53,0-1.06,0-1.59,0-.32,0-.63,0-.95,0-.07-.02-.09-.09-.09-.29,0-.59,0-.88,0-.09,0-.09,0-.1-.09,0-.11,0-.22,0-.34,0-.1,0-.1.1-.1.53,0,1.06,0,1.59,0,.34,0,.68,0,1.02,0,.1,0,.1,0,.1.1,0,.11,0,.23,0,.34,0,.06-.02.08-.08.08-.31,0-.62,0-.93,0q-.11,0-.11.11c0,.42,0,.83,0,1.25Z"/>
  <path class="cls-1" d="M14.12,14.5c0-.51,0-1.02,0-1.53,0-.09,0-.09.09-.09.14,0,.29,0,.43,0,.09,0,.09,0,.09.09,0,.59,0,1.18,0,1.76,0,.25,0,.51,0,.76,0,.1,0,.1.1.1.44,0,.88,0,1.31,0,.1,0,.1,0,.1.11,0,.12,0,.23,0,.35,0,.06-.02.08-.08.08-.66,0-1.32,0-1.99,0-.07,0-.07-.03-.07-.09,0-.51,0-1.03,0-1.54Z"/>
  <path class="cls-1" d="M11.62,14.31c0-.23.19-.41.43-.41.23,0,.42.19.42.41,0,.22-.19.41-.42.41-.24,0-.42-.18-.42-.41Z"/>
  <path class="cls-1" d="M22.79,14.32c0-.23.18-.41.42-.41.23,0,.42.19.42.41,0,.22-.19.41-.42.41-.24,0-.42-.18-.42-.41Z"/>
  <path class="cls-1" d="M17.28,14.31c0-.23.18-.41.42-.41.23,0,.43.19.42.41,0,.22-.19.41-.42.41-.24,0-.42-.18-.42-.41Z"/>
</svg>