<?xml version="1.0" encoding="UTF-8"?>
<svg id="Layer_1" data-name="Layer 1" xmlns="http://www.w3.org/2000/svg" viewBox="0 0 30 30">
  <defs>
    <style>
      .cls-1 {
        fill: #fff;
        stroke-width: 0px;
      }
    </style>
  </defs>
  <g id="Empact">
    <g id="Empact-2" data-name="Empact">
      <path class="cls-1" d="M17.08,14.46c-.56-.6-1.35-.94-2.17-.94s-1.61.34-2.17.94l-2.11-1.4c.34-.77.34-1.64,0-2.4l2.11-1.4c1.06,1.13,2.8,1.26,4.02.3,1.21-.96,1.49-2.69.63-3.98-.85-1.29-2.55-1.71-3.91-.97-1.36.74-1.92,2.4-1.29,3.81l-2.11,1.4c-.83-.89-2.13-1.19-3.27-.74-1.14.45-1.88,1.55-1.88,2.77s.75,2.32,1.88,2.77c1.14.45,2.43.15,3.27-.74l2.11,1.4c-.56,1.25-.19,2.71.88,3.56,1.08.84,2.59.84,3.66,0,1.08-.84,1.44-2.31.88-3.56-.13-.31-.32-.59-.55-.83ZM14.91,5.26c1.01,0,1.86.76,1.98,1.76s-.55,1.94-1.54,2.16c-.99.22-1.98-.34-2.31-1.3-.07-.21-.11-.42-.11-.64,0-1.09.89-1.98,1.98-1.98ZM9.79,12.51c-.31.91-1.24,1.46-2.19,1.3-.95-.16-1.65-.98-1.65-1.95s.7-1.79,1.65-1.95c.95-.16,1.88.39,2.19,1.3.15.42.15.87,0,1.29ZM14.91,18.47c-1.1,0-1.98-.89-1.98-1.98,0-.22.04-.44.11-.64.33-.96,1.32-1.52,2.31-1.3.99.22,1.65,1.15,1.54,2.16-.11,1.01-.97,1.77-1.98,1.76h0Z"/>
      <path class="cls-1" d="M21.91,8.89c-1,0-1.94.51-2.49,1.35-.55.84-.63,1.9-.23,2.82l-2.11,1.4c.23.25.41.53.54.83l2.11-1.4c.93.99,2.41,1.23,3.6.58,1.19-.65,1.79-2.03,1.45-3.35-.34-1.32-1.52-2.24-2.88-2.24ZM21.91,13.84c-1.1,0-1.98-.89-1.98-1.98s.89-1.98,1.98-1.98,1.98.89,1.98,1.98c0,.53-.2,1.03-.58,1.41-.37.37-.88.58-1.41.58Z"/>
      <path class="cls-1" d="M26.93,21.28c-.27,0-.5-.22-.5-.5v-1.54c0-1.38-.56-1.94-1.94-1.94h-2.46c-.27,0-.5-.22-.5-.5s.22-.5.5-.5h2.46c1.92,0,2.93,1.02,2.93,2.93v1.54c0,.27-.22.5-.5.5Z"/>
      <path class="cls-1" d="M17.3,20.77h-4.85c-1.92,0-2.93,1.02-2.93,2.93v1.54c0,.27.22.5.5.5s.5-.22.5-.5v-1.54c0-1.38.56-1.94,1.94-1.94h4.85c1.38,0,1.94.56,1.94,1.94v1.54c0,.27.22.5.5.5s.5-.22.5-.5v-1.54c0-1.92-1.02-2.93-2.93-2.93Z"/>
      <path class="cls-1" d="M3.07,21.28c-.27,0-.5-.22-.5-.5v-1.54c0-1.92,1.02-2.93,2.93-2.93h2.46c.27,0,.5.22.5.5s-.22.5-.5.5h-2.46c-1.38,0-1.94.56-1.94,1.94v1.54c0,.27-.22.5-.5.5Z"/>
    </g>
  </g>
</svg>