<?xml version="1.0" encoding="UTF-8"?>
<svg id="Layer_1" data-name="Layer 1" xmlns="http://www.w3.org/2000/svg" viewBox="0 0 30 30">
  <defs>
    <style>
      .cls-1 {
        fill: #d89093;
      }

      .cls-1, .cls-2, .cls-3, .cls-4, .cls-5, .cls-6 {
        stroke-width: 0px;
      }

      .cls-2 {
        fill: #84c1dd;
      }

      .cls-3 {
        fill: #998ec4;
      }

      .cls-4 {
        fill: #f0f09f;
      }

      .cls-5 {
        fill: #dfb387;
      }

      .cls-6 {
        fill: #abd295;
      }
    </style>
  </defs>
  <g id="MinForening">
    <g id="MinForening-2" data-name="MinForening">
      <path class="cls-6" d="M11.53,8.94c-2.09,1.2-3.5,3.47-3.5,6.06H2.58c0-4.61,2.51-8.63,6.24-10.77l2.71,4.71Z"/>
      <path class="cls-2" d="M11.54,21.07l-2.72,4.7c-3.73-2.14-6.24-6.16-6.24-10.77h5.45c0,2.6,1.41,4.86,3.51,6.07Z"/>
      <path class="cls-3" d="M21.23,25.74c-1.83,1.07-3.96,1.68-6.23,1.68s-4.36-.6-6.18-1.65l2.72-4.7c1.03.59,2.22.93,3.49.93s2.47-.34,3.5-.94l2.7,4.68Z"/>
      <path class="cls-1" d="M27.42,15c0,4.59-2.49,8.6-6.19,10.74l-2.7-4.68c2.09-1.2,3.5-3.47,3.5-6.06h5.39Z"/>
      <path class="cls-5" d="M27.42,15h-5.39c0-2.59-1.4-4.85-3.49-6.06l2.7-4.68c3.7,2.15,6.18,6.16,6.18,10.74Z"/>
      <polyline class="cls-4" points="15.04 15.01 15.04 15 15.03 15"/>
      <path class="cls-4" d="M21.24,4.26l-2.7,4.68c-1.03-.6-2.23-.94-3.51-.94s-2.47.34-3.5.94l-2.71-4.71c1.82-1.05,3.93-1.65,6.18-1.65s4.41.61,6.24,1.68Z"/>
    </g>
  </g>
</svg>