<?xml version="1.0" encoding="UTF-8"?>
<svg id="Layer_1" data-name="Layer 1" xmlns="http://www.w3.org/2000/svg" viewBox="0 0 30 30">
  <defs>
    <style>
      .cls-1 {
        fill: #231f20;
      }

      .cls-1, .cls-2 {
        stroke-width: 0px;
      }

      .cls-2 {
        fill: #9ea799;
      }
    </style>
  </defs>
  <g id="PPpraksis">
    <g id="Swirl_2" data-name="Swirl 2">
      <path class="cls-2" d="M13.18,12.91C7.94.32,26-1.25,23.9,9.51c-1.13,3.81-4.02,6.43-6.93,8.78-2.5,2.11-6.4,4.09-5.87,7.83-2.64-3.48,2.64-6.9,4.85-9.02,2.45-2.23,5.09-4.87,5.84-8.09.93-5.33-5.12-5.77-7.78-2.28-.94,1.76-.79,4.08-.83,6.19h0Z"/>
    </g>
    <path id="Bottom_P" data-name="Bottom P" class="cls-1" d="M15.67,20.81c4.26,0,5.19-1.14,5.19-3.16,0-2.48-2.06-3.15-5.26-3.15h-4.11v.31h1.81v11.39h-1.81v.3h5.4v-.3h-1.8v-5.39c.17.02.41,0,.58,0ZM19.03,17.65c-.25,2.62-1.3,2.85-3.94,2.85v-5.69c2.57.04,3.88.26,3.94,2.84Z"/>
    <path id="Top_P" data-name="Top P" class="cls-1" d="M12.43,12.16c4.26,0,5.19-1.14,5.19-3.16,0-2.48-2.06-3.15-5.26-3.15h-4.11v.31h1.81v11.39h-1.81v.3h5.4v-.3h-1.8v-5.39c.17.02.41,0,.58,0ZM15.79,9c-.25,2.62-1.3,2.85-3.94,2.85v-5.69c2.57.04,3.88.26,3.94,2.84Z"/>
  </g>
</svg>